<svg width="210" height="210" viewBox="0 0 210 210" fill="none" xmlns="http://www.w3.org/2000/svg">
<g id="logo_ej_2">
<g id="Group 2">
<circle id="Ellipse 6" cx="104" cy="105" r="100" fill="#E9EFEC"/>
<g id="Ellipse 4" opacity="0.5" filter="url(#filter0_f_65_2)">
<ellipse cx="105.187" cy="104.677" rx="33.507" ry="99.4261" transform="rotate(42.8541 105.187 104.677)" fill="#94CAB6"/>
</g>
<g id="Ellipse 5" opacity="0.7" filter="url(#filter1_f_65_2)">
<path d="M118.827 129.135C95.2125 142.392 72.298 151.461 54.3884 155.447C45.4175 157.444 37.846 158.132 32.1294 157.517C26.3355 156.893 23.0324 155.012 21.6145 152.486C20.1965 149.96 20.3107 146.161 22.7954 140.89C25.247 135.689 29.7777 129.584 36.1539 122.965C48.8834 109.751 68.5582 94.9116 92.1728 81.6549C115.788 68.3982 138.702 59.3294 156.612 55.3432C165.582 53.3465 173.154 52.6579 178.871 53.2733C184.664 53.8969 187.968 55.778 189.385 58.3039C190.803 60.8297 190.689 64.6291 188.205 69.9002C185.753 75.101 181.222 81.2063 174.846 87.8251C162.117 101.039 142.442 115.879 118.827 129.135Z" stroke="#588E7A" stroke-width="5"/>
</g>
<circle id="Ellipse 3" cx="104.5" cy="105.5" r="79.5" stroke="#16423C" stroke-width="10"/>
<path id="ej" d="M64.37 105.77C60.6833 105.77 57.4633 105.117 54.71 103.81C51.9567 102.457 49.81 100.567 48.27 98.14C46.73 95.7133 45.96 92.89 45.96 89.67C45.96 85.7033 46.8233 82.2267 48.55 79.24C50.3233 76.2533 52.7033 73.9433 55.69 72.31C58.7233 70.63 62.0833 69.79 65.77 69.79C68.7567 69.79 71.2767 70.28 73.33 71.26C75.43 72.24 77.0867 73.57 78.3 75.25C79.56 76.93 80.4 78.8433 80.82 80.99C81.24 83.09 81.31 85.26 81.03 87.5C80.89 88.6667 80.5633 89.4367 80.05 89.81C79.5367 90.1367 78.86 90.3 78.02 90.3H56.11L56.95 84.42H72.49L71.37 85.33C71.6033 83.8833 71.5333 82.6 71.16 81.48C70.8333 80.36 70.2033 79.4967 69.27 78.89C68.3833 78.2367 67.17 77.91 65.63 77.91C64.1367 77.91 62.8767 78.2367 61.85 78.89C60.8233 79.5433 59.9833 80.43 59.33 81.55C58.7233 82.67 58.3267 83.93 58.14 85.33L57.65 88.06C57.23 90.8133 57.7433 92.9367 59.19 94.43C60.6367 95.8767 62.83 96.6 65.77 96.6C66.8433 96.6 68.0333 96.4833 69.34 96.25C70.6933 96.0167 71.86 95.6667 72.84 95.2C74.1 94.6867 75.15 94.57 75.99 94.85C76.8767 95.13 77.53 95.6667 77.95 96.46C78.37 97.2067 78.5333 98.0467 78.44 98.98C78.3933 99.9133 78.09 100.823 77.53 101.71C76.97 102.55 76.13 103.203 75.01 103.67C73.3767 104.417 71.6267 104.953 69.76 105.28C67.94 105.607 66.1433 105.77 64.37 105.77ZM81.2881 118.3C80.0281 118.347 79.0248 118.067 78.2781 117.46C77.5315 116.9 77.0415 116.2 76.8081 115.36C76.5281 114.52 76.5048 113.657 76.7381 112.77C76.9248 111.883 77.3681 111.113 78.0681 110.46C78.7215 109.853 79.6081 109.48 80.7281 109.34C82.0815 109.247 83.1548 108.827 83.9481 108.08C84.7415 107.38 85.2548 106.283 85.4881 104.79L90.0381 76.09C90.3648 74.0367 91.1115 72.4967 92.2781 71.47C93.4448 70.4433 95.0548 69.93 97.1081 69.93C99.0681 69.93 100.515 70.56 101.448 71.82C102.381 73.08 102.661 74.8533 102.288 77.14L98.2281 103.11C97.7148 106.517 96.8048 109.317 95.4981 111.51C94.2381 113.75 92.4648 115.43 90.1781 116.55C87.8915 117.67 84.9281 118.253 81.2881 118.3ZM97.9481 64.96C95.8015 64.96 94.2148 64.4467 93.1881 63.42C92.1615 62.3933 91.7648 60.9467 91.9981 59.08C92.3248 57.0733 93.1415 55.5567 94.4481 54.53C95.8015 53.5033 97.6215 52.99 99.9081 52.99C102.055 52.99 103.665 53.5033 104.738 54.53C105.811 55.5567 106.208 57.0033 105.928 58.87C105.601 60.8767 104.761 62.3933 103.408 63.42C102.101 64.4467 100.281 64.96 97.9481 64.96Z" fill="#2E795D"/>
<path id="2" d="M111.1 157C108.7 157 106.7 156.4 105.1 155.2C103.5 153.933 102.7 152.167 102.7 149.9C102.7 147.967 103.1 146.3 103.9 144.9C104.767 143.433 106.333 141.667 108.6 139.6L128.4 121.4C131.6 118.467 134 115.933 135.6 113.8C137.267 111.667 138.1 109.4 138.1 107C138.1 104.867 137.333 103.267 135.8 102.2C134.333 101.067 132.333 100.5 129.8 100.5C128.467 100.5 126.833 100.733 124.9 101.2C123.033 101.6 121.033 102.4 118.9 103.6C117.233 104.467 115.7 104.733 114.3 104.4C112.9 104 111.767 103.233 110.9 102.1C110.033 100.9 109.5 99.5667 109.3 98.1C109.1 96.6333 109.3 95.2 109.9 93.8C110.5 92.4 111.6 91.2667 113.2 90.4C116.333 88.7333 119.6 87.5 123 86.7C126.4 85.8333 130.033 85.4 133.9 85.4C138.3 85.4 142.167 86.2 145.5 87.8C148.9 89.4 151.5 91.6 153.3 94.4C155.167 97.1333 156.1 100.3 156.1 103.9C156.1 107.833 155.4 111.333 154 114.4C152.667 117.467 150.8 120.333 148.4 123C146 125.667 143.2 128.367 140 131.1L122.1 146.7L122 142.1H145.2C147.733 142.1 149.667 142.633 151 143.7C152.4 144.767 153.1 146.3 153.1 148.3C153.1 150.967 152.3 153.1 150.7 154.7C149.167 156.233 147 157 144.2 157H111.1Z" fill="#16423C"/>
</g>
</g>
<defs>
<filter id="filter0_f_65_2" x="24.2209" y="19.2893" width="161.931" height="170.776" filterUnits="userSpaceOnUse" color-interpolation-filters="sRGB">
<feFlood flood-opacity="0" result="BackgroundImageFix"/>
<feBlend mode="normal" in="SourceGraphic" in2="BackgroundImageFix" result="shape"/>
<feGaussianBlur stdDeviation="4.5" result="effect1_foregroundBlur_65_2"/>
</filter>
<filter id="filter1_f_65_2" x="14.1993" y="46.5557" width="182.601" height="117.679" filterUnits="userSpaceOnUse" color-interpolation-filters="sRGB">
<feFlood flood-opacity="0" result="BackgroundImageFix"/>
<feBlend mode="normal" in="SourceGraphic" in2="BackgroundImageFix" result="shape"/>
<feGaussianBlur stdDeviation="2" result="effect1_foregroundBlur_65_2"/>
</filter>
</defs>
</svg>
